<?xml version="1.0" encoding="utf-8"?>
<!-- Generator: Adobe Illustrator 23.0.2, SVG Export Plug-In . SVG Version: 6.00 Build 0)  -->
<svg version="1.1" id="fond" xmlns="http://www.w3.org/2000/svg" xmlns:xlink="http://www.w3.org/1999/xlink" x="0px" y="0px"
	 viewBox="0 0 148.6 148.6" style="enable-background:new 0 0 148.6 148.6;" xml:space="preserve">
<style type="text/css">
	.st0{fill:url(#SVGID_1_);}
</style>
<linearGradient id="SVGID_1_" gradientUnits="userSpaceOnUse" x1="0" y1="74.2897" x2="148.5795" y2="74.2897">
	<stop  offset="4.102398e-07" style="stop-color:#FF7B52"/>
	<stop  offset="1" style="stop-color:#FF3AF0"/>
</linearGradient>
<circle class="st0" cx="74.3" cy="74.3" r="74.3"/>
<g>
	<path d="M42.5,58.1V33.5H29.2v83.2c3.5,0,7,0,10.5,0c0,0,0,0.1,0,0.1c0.7-10.2,3.1-20.3,6.5-30l5.4,8.9c-2,6.8-3.5,13.9-4,21h30.6
		L42.5,58.1z"/>
	<path d="M55.2,66.3c6.7-12.5,15.3-24.6,27.1-32.8H63.9C51.4,43.2,46.3,52.9,55.2,66.3L55.2,66.3z"/>
	<g>
		<path d="M117.6,77.4c-1.4,0-2.5,2.3-2.5,5.2v34.1h5V82.5C120.1,79.7,119,77.4,117.6,77.4z"/>
		<path d="M108,60.9c-2,0-3.6,3.5-3.6,7.9v47.8h7.2V68.8C111.6,64.5,110,60.9,108,60.9z"/>
		<g>
			<path d="M72.1,70.8c0-3.1-1.4-5.6-3.1-5.6c-1.7,0-3.1,2.5-3.1,5.6v12.7l6.2,10.2V70.8z"/>
		</g>
		<path d="M100.9,54c0-5.9-2.1-10.6-4.7-10.6c-2.6,0-4.7,4.8-4.7,10.6v62.6h9.4V55.3C100.9,54.9,100.9,54.5,100.9,54z"/>
		<path d="M86.4,61.9C86.4,61.9,86.4,61.9,86.4,61.9c0-5.4-1.9-9.8-4.3-9.8s-4.3,4.4-4.3,9.8c0,0,0,0,0,0h0v41.1l8.7,13.7L86.4,61.9
			L86.4,61.9z"/>
	</g>
</g>
</svg>
