<?xml version="1.0" encoding="utf-8"?>
<!-- Generator: Adobe Illustrator 23.0.2, SVG Export Plug-In . SVG Version: 6.00 Build 0)  -->
<svg version="1.1" xmlns="http://www.w3.org/2000/svg" xmlns:xlink="http://www.w3.org/1999/xlink" x="0px" y="0px"
	 viewBox="0 0 427.9 390.2" style="enable-background:new 0 0 427.9 390.2;" xml:space="preserve">
<g id="Calque_2">
</g>
<g id="fond">
	<g>
		<path d="M62.2,115.2V0H0v389.8c16.5,0,33,0,49.4,0c0,0.2,0,0.4,0,0.5c3.4-47.9,14.6-95.2,30.2-140.5l25.3,41.6
			c-9.3,32.1-16.2,65-18.8,98.4h143.3L62.2,115.2z"/>
		<path d="M121.8,153.8C153.3,95.3,193.5,38.2,248.9,0h-86.5C104,45.4,80.1,91,121.7,153.8L121.8,153.8z"/>
		<g>
			<path d="M414.2,205.7c-6.5,0-11.8,10.8-11.8,24.2v160h23.5v-160C425.9,216.5,420.7,205.7,414.2,205.7z"/>
			<path d="M369.3,128.7c-9.3,0-16.9,16.5-16.9,37v224.2h33.8V165.6C386.2,145.2,378.6,128.7,369.3,128.7z"/>
			<g>
				<path d="M201,175c0-14.4-6.5-26.1-14.6-26.1c-8.1,0-14.6,11.7-14.6,26.1v59.5l29.3,48V175z"/>
			</g>
			<path d="M336.1,96.2c0-27.5-9.9-49.7-22.2-49.7c-12.3,0-22.2,22.3-22.2,49.7v293.7h44.2V102.5C336,100.4,336.1,98.3,336.1,96.2z"
				/>
			<path d="M268,133.2C268,133.1,268,133.1,268,133.2c0-25.4-9.1-46-20.3-46c-11.2,0-20.4,20.6-20.4,45.9c0,0,0,0,0,0.1h0v192.5
				l40.8,64.2L268,133.2L268,133.2z"/>
		</g>
	</g>
</g>
</svg>
